custom-analysis
version=1
nRows=5
nColumns=98
inDegrees=no

This file contains tibia displacement and acting force.

Units are S.I. units (seconds, meters, Newtons, ...)
Angles are in degrees.

endheader
time	APT	SIT	knee_angle	aACL_R_force	pACL_R_force	aPCL_R_force	pPCL_R_force	aMCL_R_force	mMCL_R_force	pMCL_R_force	aLCL_R_force	mLCL_R_force	pLCL_R_force	aPCL_L_force	pPCL_L_force	aMCL_L_force	aLCL_L_force	aACL_R_length	pACL_R_length	aPCL_R_length	pPCL_R_length	aMCL_R_length	mMCL_R_length	pMCL_R_length	aLCL_R_length	mLCL_R_length	pLCL_R_length	aPCL_L_length	pPCL_L_length	aMCL_L_length	aLCL_L_length	aACL_R_strain	pACL_R_strain	aPCL_R_strain	pPCL_R_strain	aMCL_R_strain	mMCL_R_strain	pMCL_R_strain	aLCL_R_strain	mLCL_R_strain	pLCL_R_strain	aPCL_L_strain	pPCL_L_strain	aMCL_L_strain	aLCL_L_strain	femur_lat_meniscii_r.femur_lat_r.force.X	femur_lat_meniscii_r.femur_lat_r.force.Y	femur_lat_meniscii_r.femur_lat_r.force.Z	femur_lat_meniscii_r.femur_lat_r.torque.X	femur_lat_meniscii_r.femur_lat_r.torque.Y	femur_lat_meniscii_r.femur_lat_r.torque.Z	femur_lat_meniscii_r.meniscus_lat_r.force.X	femur_lat_meniscii_r.meniscus_lat_r.force.Y	femur_lat_meniscii_r.meniscus_lat_r.force.Z	femur_lat_meniscii_r.meniscus_lat_r.torque.X	femur_lat_meniscii_r.meniscus_lat_r.torque.Y	femur_lat_meniscii_r.meniscus_lat_r.torque.Z	femur_med_meniscii_r.femur_med_r.force.X	femur_med_meniscii_r.femur_med_r.force.Y	femur_med_meniscii_r.femur_med_r.force.Z	femur_med_meniscii_r.femur_med_r.torque.X	femur_med_meniscii_r.femur_med_r.torque.Y	femur_med_meniscii_r.femur_med_r.torque.Z	femur_med_meniscii_r.meniscus_med_r.force.X	femur_med_meniscii_r.meniscus_med_r.force.Y	femur_med_meniscii_r.meniscus_med_r.force.Z	femur_med_meniscii_r.meniscus_med_r.torque.X	femur_med_meniscii_r.meniscus_med_r.torque.Y	femur_med_meniscii_r.meniscus_med_r.torque.Z	femur_med_tibia_r.tibia_upper_r.force.X	femur_med_tibia_r.tibia_upper_r.force.Y	femur_med_tibia_r.tibia_upper_r.force.Z	femur_med_tibia_r.tibia_upper_r.torque.X	femur_med_tibia_r.tibia_upper_r.torque.Y	femur_med_tibia_r.tibia_upper_r.torque.Z	femur_med_tibia_r.femur_med_r.force.X	femur_med_tibia_r.femur_med_r.force.Y	femur_med_tibia_r.femur_med_r.force.Z	femur_med_tibia_r.femur_med_r.torque.X	femur_med_tibia_r.femur_med_r.torque.Y	femur_med_tibia_r.femur_med_r.torque.Z	femur_lat_tibia_r.tibia_upper_r.force.X	femur_lat_tibia_r.tibia_upper_r.force.Y	femur_lat_tibia_r.tibia_upper_r.force.Z	femur_lat_tibia_r.tibia_upper_r.torque.X	femur_lat_tibia_r.tibia_upper_r.torque.Y	femur_lat_tibia_r.tibia_upper_r.torque.Z	femur_lat_tibia_r.femur_lat_r.force.X	femur_lat_tibia_r.femur_lat_r.force.Y	femur_lat_tibia_r.femur_lat_r.force.Z	femur_lat_tibia_r.femur_lat_r.torque.X	femur_lat_tibia_r.femur_lat_r.torque.Y	femur_lat_tibia_r.femur_lat_r.torque.Z	femur_lat_meniscii_force_r	femur_med_meniscii_force_r	femur_lat_tibia_force_r	femur_med_tibia_force_r
      0.10746588	      0.00830443	      0.00745839	     27.92180361	     11.61019388	    -10.98474581	      0.00000000	     55.21896466	      0.00000000	      0.00000000	    -36.61464971	      0.00000000	      0.00000000	      0.00000000	      0.00000000	      0.00000000	      0.00000001	      0.00000000	      0.03258087	      0.02552359	      0.03086225	      0.03006835	      0.05723206	      0.05955294	      0.05890672	      0.05335612	      0.05032395	      0.04679083	      0.01525851	      0.01651186	      0.06550154	      0.04489616	      0.05080939	      0.01855212	     -0.00749460	      0.00604104	     -0.04656142	     -0.00402311	      0.00304320	     -0.04682405	     -0.10644174	     -0.10606768	      0.00000079	     -0.32847694	      0.00000060	     -0.00000086	     51.31227361	    251.43715202	     39.62557405	    -22.38141855	      1.34830712	     20.26770929	    -51.31227361	   -251.43715202	    -39.62557405	      7.78026307	     -1.85585568	      1.86029943	    -28.44226255	     52.85195201	      5.05637487	     -0.81869843	      0.67256927	    -11.65331156	     28.44226255	    -52.85195201	     -5.05637487	     -0.99918585	     -0.66104692	      1.30721928	    -85.00374800	   -508.45751036	    117.83959182	    -12.11835478	      2.22751347	      0.89214558	     85.00374800	    508.45751036	   -117.83959182	     58.27849240	     -1.23617919	     36.68296815	    -45.39285525	   -174.59824761	    -44.15304099	      5.97094632	     -1.61879696	      0.25987656	     45.39285525	    174.59824761	     44.15304099	    -22.47053919	      1.07894616	     18.83780314	    259.66088839	     60.23170309	    185.72708582	    528.81078508
      0.10836019	      0.00836681	      0.00757883	     28.32664350	     10.80116512	    -11.61822371	      0.00000000	     56.60777697	      0.00000000	      0.00000000	    -36.80109051	      0.00000000	      0.00000000	      0.00000000	      0.00000000	      0.00000000	      0.00000001	      0.00000000	      0.03256274	      0.02549321	      0.03093117	      0.03011624	      0.05726648	      0.05954893	      0.05886157	      0.05334962	      0.05029231	      0.04673418	      0.01525851	      0.01651186	      0.06550154	      0.04489616	      0.05022463	      0.01733985	     -0.00527834	      0.00764335	     -0.04598800	     -0.00409026	      0.00227441	     -0.04694017	     -0.10700352	     -0.10715000	      0.00000079	     -0.32847694	      0.00000060	     -0.00000086	     47.95736901	    251.69506932	     39.17424328	    -22.20069298	      1.25060844	     18.82460812	    -47.95736901	   -251.69506932	    -39.17424328	      7.76290714	     -1.74976400	      2.05730686	    -27.29458382	     53.01211618	      5.76856172	     -1.11165045	      0.64085672	    -11.17861507	     27.29458382	    -53.01211618	     -5.76856172	     -0.98020741	     -0.64076730	      1.27993798	    -89.22203484	   -508.21953892	    116.84067098	    -12.08137904	      2.30785082	      0.82344132	     89.22203484	    508.21953892	   -116.84067098	     57.83998929	     -1.31657688	     38.43053650	    -43.02559875	   -166.26688577	    -42.15820899	      5.67811020	     -1.54686753	      0.30424572	     43.02559875	    166.26688577	     42.15820899	    -21.43970056	      1.02807914	     17.82767238	    259.20057580	     59.90454968	    176.84228577	    529.05520850
      0.10943734	      0.00844456	      0.00772623	     28.81745112	      9.87938527	    -12.27519098	      0.00000000	     58.74817736	      0.00000000	      0.00000000	    -37.25785764	      0.00000000	      0.00000000	      0.00000000	      0.00000000	      0.00000000	      0.00000001	      0.00000000	      0.03253989	      0.02545584	      0.03101359	      0.03017250	      0.05730807	      0.05954361	      0.05880669	      0.05334134	      0.05025328	      0.04666484	      0.01525851	      0.01651186	      0.06550154	      0.04489616	      0.04948755	      0.01584826	     -0.00262769	      0.00952562	     -0.04529512	     -0.00417929	      0.00133995	     -0.04708803	     -0.10769650	     -0.10847467	      0.00000079	     -0.32847694	      0.00000060	     -0.00000086	     44.62816879	    252.43962580	     38.89892946	    -22.10409820	      1.15358188	     17.38328571	    -44.62816879	   -252.43962580	    -38.89892946	      7.76185170	     -1.64730307	      2.27542983	    -26.12735429	     52.90511832	      6.84054725	     -1.55825555	      0.61560920	    -10.69949809	     26.12735429	    -52.90511832	     -6.84054725	     -0.94603170	     -0.63115011	      1.25460949	    -94.26897401	   -508.88234250	    116.72280823	    -12.09424688	      2.40978638	      0.76163332	     94.26897401	    508.88234250	   -116.72280823	     57.78748822	     -1.40703269	     40.51340711	    -41.27680240	   -157.97923981	    -40.45827748	      5.39750346	     -1.49406478	      0.32845457	     41.27680240	    157.97923981	     40.45827748	    -20.53410410	      0.99133650	     17.07740525	    259.28857444	     59.40019591	    168.22035205	    530.53943485
      0.11064277	      0.00853429	      0.00789410	     29.37073294	      8.77395034	    -13.01701568	     27.02317177	     60.83393422	      0.00000000	      0.00000000	    -38.53428026	      0.00000000	      0.00000000	      0.00000000	      0.00000000	      0.00000000	      0.00000001	      0.00000000	      0.03251305	      0.02541310	      0.03110528	      0.03023391	      0.05735464	      0.05953697	      0.05874460	      0.05333158	      0.05020854	      0.04658598	      0.01525851	      0.01651186	      0.06550154	      0.04489616	      0.04862213	      0.01414275	      0.00032081	      0.01158031	     -0.04451927	     -0.00429035	      0.00028265	     -0.04726247	     -0.10849090	     -0.10998127	      0.00000079	     -0.32847694	      0.00000060	     -0.00000086	     44.10829631	    255.56766698	     37.77287618	    -21.70773634	      1.12994258	     17.11464626	    -44.10829631	   -255.56766698	    -37.77287618	      7.79031605	     -1.61610243	      2.42637126	    -25.12467575	     53.74324857	      7.42510005	     -1.77480000	      0.58437659	    -10.28842029	     25.12467575	    -53.74324857	     -7.42510005	     -0.95378724	     -0.61061469	      1.24547827	   -101.00259331	   -509.11219842	    116.20488908	    -12.08066030	      2.54082845	      0.65032675	    101.00259331	    509.11219842	   -116.20488908	     57.55363503	     -1.53076358	     43.29898350	    -39.66155645	   -149.14987813	    -37.56149595	      5.05508975	     -1.43004342	      0.34008216	     39.66155645	    149.14987813	     37.56149595	    -19.10999884	      0.95521987	     16.38607396	    262.08236183	     59.78894722	    158.83825479	    531.88375674
      0.11162036	      0.00861273	      0.00803598	     29.82298061	      8.01348966	    -13.51870866	     24.68363110	     56.96159756	      0.00000000	      0.00000000	      0.00000000	      0.00000000	      0.00000000	      0.00000000	      0.00000000	      0.00000000	      0.00000001	      0.00000000	      0.03249045	      0.02537776	      0.03117418	      0.03027751	      0.05738877	      0.05952730	      0.05869000	      0.05331935	      0.05016759	      0.04651714	      0.01525851	      0.01651186	      0.06550154	      0.04489616	      0.04789306	      0.01273236	      0.00253687	      0.01303904	     -0.04395070	     -0.00445206	     -0.00064713	     -0.04748102	     -0.10921810	     -0.11129660	      0.00000079	     -0.32847694	      0.00000060	     -0.00000086	     49.32177052	    269.18190087	     35.68884989	    -21.16027313	      1.23705949	     19.20476995	    -49.32177052	   -269.18190087	    -35.68884989	      8.05818407	     -1.71620612	      2.51618310	    -23.91623454	     56.05530286	      7.81279154	     -1.87362570	      0.55491106	     -9.77275082	     23.91623454	    -56.05530286	     -7.81279154	     -1.00040138	     -0.58976484	      1.22495252	   -112.11714249	   -527.66188966	    121.99734774	    -12.59778046	      2.79220026	      0.51385107	    112.11714249	    527.66188966	   -121.99734774	     60.30657973	     -1.72068066	     47.96568077	    -41.08408253	   -147.07541631	    -36.47808320	      4.94946573	     -1.45799653	      0.30141102	     41.08408253	    147.07541631	     36.47808320	    -18.59967142	      0.98707497	     16.97107445	    275.98048266	     61.44284307	    157.00232633	    553.06480298
